<?xml version="1.0" standalone="no"?>
<!DOCTYPE svg PUBLIC "-//W3C//DTD SVG 20010904//EN"
 "http://www.w3.org/TR/2001/REC-SVG-20010904/DTD/svg10.dtd">
<svg version="1.0" xmlns="http://www.w3.org/2000/svg"
 width="329.000000pt" height="279.000000pt" viewBox="0 0 329.000000 279.000000"
 preserveAspectRatio="xMidYMid meet">

<g transform="translate(0.000000,279.000000) scale(0.100000,-0.100000)"
fill="#000000" stroke="none">
<path d="M1605 2731 c-28 -12 -51 -40 -69 -83 l-16 -37 -117 -3 c-113 -3 -119
-2 -145 21 -39 34 -121 40 -166 12 -42 -27 -72 -77 -72 -121 0 -31 -6 -41 -48
-72 -26 -19 -63 -43 -82 -53 -18 -10 -74 -58 -124 -107 -73 -72 -94 -88 -111
-82 -11 3 -38 8 -60 11 -101 10 -173 -104 -134 -211 10 -28 7 -38 -24 -96 -40
-72 -67 -170 -67 -242 0 -40 -4 -50 -29 -67 -60 -43 -78 -159 -34 -220 11 -14
42 -38 71 -52 28 -14 78 -52 109 -85 32 -33 81 -74 108 -90 48 -28 55 -29 179
-30 149 -2 139 4 203 -113 68 -124 87 -136 277 -177 94 -20 159 -10 243 36
l51 29 41 -29 41 -30 0 -373 c0 -386 1 -397 41 -397 42 0 43 14 40 404 l-3
372 37 17 36 17 99 -87 c55 -47 100 -94 100 -103 0 -10 -14 -35 -31 -56 -18
-22 -45 -59 -60 -83 l-29 -45 0 -192 c0 -106 4 -204 10 -218 12 -31 40 -34 65
-6 16 18 18 39 16 207 l-1 188 50 62 51 63 59 -7 c37 -3 70 -1 88 6 22 9 35 9
65 -4 47 -19 141 -19 199 1 72 24 181 140 238 251 25 51 37 64 63 71 55 14
156 184 186 312 15 64 20 72 51 88 100 50 108 206 14 267 -28 18 -32 27 -37
80 -7 64 -41 174 -76 243 -21 41 -21 44 -5 90 21 59 13 109 -23 152 -46 56
-125 78 -167 47 -16 -12 -25 -7 -73 40 -31 29 -59 53 -64 53 -4 0 -10 13 -14
30 -9 41 -49 70 -97 70 -31 0 -47 8 -83 41 -33 30 -45 49 -45 70 0 41 -14 72
-50 107 -50 51 -142 55 -195 9 -25 -21 -30 -22 -148 -13 l-122 10 -20 39 c-12
23 -35 48 -55 58 -36 20 -100 24 -135 10z m108 -81 c33 -26 42 -65 22 -97 -34
-52 -109 -50 -134 3 -16 36 -14 58 10 88 25 32 66 34 102 6z m-496 -82 c33
-31 32 -90 -3 -117 -35 -28 -69 -26 -99 4 -73 72 27 184 102 113z m1007 1 c21
-16 26 -29 26 -64 0 -51 -24 -75 -76 -75 -66 0 -98 87 -49 135 30 30 64 32 99
4z m-676 -59 c12 -16 36 -37 52 -45 l30 -16 0 -107 c0 -104 -1 -107 -25 -122
-26 -15 -27 -14 -160 117 -130 129 -134 133 -128 168 l6 35 101 0 c102 0 102
0 124 -30z m481 -7 c-2 -35 -13 -49 -133 -166 -129 -124 -133 -127 -159 -115
-27 13 -27 13 -27 124 0 112 0 112 26 118 14 4 34 22 46 41 l20 35 114 0 114
0 -1 -37z m-942 -118 l33 -20 0 -97 c0 -56 -4 -98 -10 -98 -5 0 -24 -16 -43
-35 l-35 -36 -148 3 c-180 4 -186 10 -104 93 50 50 53 52 85 42 18 -5 40 -7
49 -4 21 8 56 66 56 93 0 21 65 88 78 82 4 -2 22 -12 39 -23z m1248 -17 c25
-23 45 -52 45 -63 0 -32 37 -84 65 -91 15 -4 34 0 48 9 21 14 25 11 80 -38 86
-78 79 -83 -110 -87 l-154 -3 -25 32 c-13 17 -33 35 -44 38 -18 6 -20 15 -20
106 0 92 1 99 20 99 11 0 25 9 32 20 7 11 14 20 16 20 1 0 22 -19 47 -42z
m-937 -98 c81 -80 132 -138 132 -150 0 -19 -7 -20 -120 -20 -110 0 -121 2
-132 21 -7 11 -28 29 -45 40 l-33 21 0 89 c0 85 1 90 24 99 13 5 27 14 31 19
3 6 7 11 8 11 1 0 62 -59 135 -130z m687 119 c4 -5 17 -14 29 -19 20 -7 22
-16 24 -99 l2 -90 -29 -15 c-49 -26 -76 -73 -76 -133 0 -50 -1 -53 -60 -105
l-60 -54 -50 10 c-27 6 -57 15 -65 20 -8 5 4 -11 27 -34 l41 -43 -66 -74 c-37
-40 -72 -73 -79 -73 -10 0 -13 30 -13 124 l0 124 38 19 c48 24 67 63 67 143 0
63 0 65 45 104 25 22 81 78 125 123 44 46 83 83 87 83 4 0 10 -5 13 -11z m423
-60 c3 -19 -23 -49 -43 -49 -7 0 -21 7 -29 16 -12 12 -13 20 -5 35 13 25 72
23 77 -2z m-809 -170 c36 -13 51 -35 51 -76 0 -46 -25 -73 -69 -73 -76 0 -110
82 -56 135 28 28 31 29 74 14z m-1074 -15 c19 -8 45 -55 45 -82 0 -11 -11 -31
-25 -46 -44 -48 -108 -23 -129 50 -5 15 2 31 20 53 25 30 54 38 89 25z m2178
-12 c30 -33 38 -70 22 -101 -42 -82 -143 -37 -136 60 3 48 81 77 114 41z
m-1603 -37 c62 -32 47 -134 -21 -150 -37 -9 -89 36 -89 77 0 38 16 67 43 78
31 12 34 12 67 -5z m1015 -10 c28 -27 31 -45 14 -78 -23 -43 -62 -49 -97 -17
-31 29 -29 73 4 99 34 27 50 26 79 -4z m-1280 -74 c84 -6 90 -7 96 -31 5 -21
-3 -35 -54 -87 -52 -53 -63 -60 -80 -52 -10 6 -36 12 -56 14 -31 2 -47 12 -90
58 -52 55 -52 56 -36 81 19 29 39 30 220 17z m638 -36 c18 -17 37 -34 43 -36
7 -2 13 -51 16 -132 l5 -128 -30 -13 c-30 -12 -32 -11 -96 57 -36 39 -86 88
-110 111 -103 95 -109 104 -98 147 l9 39 115 -7 c111 -6 115 -7 146 -38z
m1055 11 c6 -28 -75 -106 -111 -106 -15 0 -40 -6 -55 -14 -15 -7 -52 -17 -81
-21 l-55 -7 28 -21 c24 -17 27 -24 21 -57 -4 -26 -21 -54 -53 -89 l-47 -51
-40 15 c-22 8 -59 14 -82 15 -39 0 -48 6 -113 72 -38 39 -70 74 -70 77 0 4 26
33 58 64 58 58 58 58 88 42 64 -33 140 -4 179 68 l20 37 155 -2 c142 -3 155
-5 158 -22z m-1939 -120 c48 -48 49 -49 33 -73 -8 -14 -21 -46 -27 -71 -10
-41 -20 -54 -80 -99 -69 -52 -69 -52 -90 -33 -11 10 -32 23 -47 29 -25 9 -28
15 -28 59 0 59 24 143 56 198 23 40 25 40 79 39 52 0 58 -3 104 -49z m2083 44
c35 0 39 -3 63 -51 26 -50 65 -184 65 -221 0 -10 -10 -22 -23 -27 -13 -5 -29
-16 -36 -25 -7 -9 -19 -16 -25 -16 -6 0 -41 27 -77 60 -53 47 -68 67 -73 97
-4 21 -14 55 -23 75 -15 37 -15 37 17 78 25 32 38 40 54 36 12 -3 38 -6 58 -6z
m-1399 -178 l142 -140 0 -80 c0 -72 -3 -83 -24 -106 l-25 -27 28 -27 27 -27
25 29 c22 25 30 28 52 20 27 -9 27 -11 30 -109 l2 -100 -44 -28 c-45 -28 -46
-28 -70 -10 -14 10 -26 26 -26 35 0 10 -7 35 -16 57 -12 30 -25 43 -54 55 -22
9 -52 13 -67 10 -22 -4 -34 0 -52 20 -21 22 -22 28 -12 57 16 46 14 121 -5
147 -19 28 -85 62 -119 62 -14 0 -40 -7 -57 -16 l-32 -17 -48 54 c-46 52 -47
56 -48 119 0 64 0 65 50 115 l51 51 75 -2 76 -2 141 -140z m1172 66 c58 -26
67 -116 14 -143 -41 -22 -67 -18 -94 11 -34 37 -33 78 4 115 33 33 39 34 76
17z m-1652 -37 c11 -11 19 -34 20 -56 1 -29 -5 -43 -27 -62 -34 -29 -59 -24
-98 18 -36 38 -35 63 2 101 25 24 36 29 58 23 15 -3 35 -14 45 -24z m1087 -92
l69 -71 -20 -31 c-21 -36 -25 -109 -9 -153 11 -27 6 -33 -115 -154 l-126 -127
-34 16 -34 16 -1 93 0 93 41 37 c23 20 47 49 55 64 17 33 17 101 -1 148 l-13
35 57 52 c31 29 58 52 59 53 2 0 35 -32 72 -71z m499 -229 l1 -125 -31 -17
c-18 -11 -38 -36 -50 -64 -18 -40 -19 -51 -9 -94 l12 -49 -51 -63 c-28 -34
-63 -86 -78 -114 -23 -45 -29 -50 -45 -40 -16 10 -18 30 -18 233 l0 221 34 22
c46 28 78 95 75 155 -3 40 1 49 35 84 l38 39 43 -31 44 -32 0 -125z m-769 155
c34 -17 44 -44 36 -91 -12 -63 -86 -85 -131 -39 -41 40 -26 113 29 135 30 12
33 12 66 -5z m1071 -153 c4 -42 3 -44 -69 -110 -47 -44 -76 -64 -80 -56 -4 6
-22 19 -40 28 l-33 17 3 123 3 123 30 20 29 19 77 -60 c71 -57 77 -64 80 -104z
m-2019 133 c33 -28 81 -33 135 -13 33 12 34 11 86 -40 44 -43 53 -58 53 -89 1
-32 12 -66 42 -127 3 -5 0 -6 -5 -3 -5 3 -41 -14 -81 -37 -91 -55 -167 -71
-254 -56 -75 14 -142 47 -185 92 l-32 33 29 44 c17 24 30 56 30 71 0 14 6 34
13 43 10 14 126 104 136 106 2 1 16 -10 33 -24z m1466 -31 c12 -14 22 -35 22
-47 0 -31 -35 -84 -60 -92 -76 -24 -140 67 -94 133 33 48 92 50 132 6z m-1769
2 c34 -18 55 -58 38 -75 -6 -6 -39 -11 -74 -11 -63 0 -63 0 -63 28 0 33 26 60
68 71 2 1 15 -5 31 -13z m2524 -24 c25 -29 29 -57 9 -60 -41 -5 -48 -5 -73 -4
-14 1 -34 8 -44 16 -18 13 -18 15 -2 39 25 38 81 42 110 9z m-1779 -43 c31
-25 33 -57 5 -93 -41 -52 -103 -20 -97 50 2 29 9 42 28 51 33 17 33 16 64 -8z
m1672 -209 c-8 -56 -45 -134 -90 -185 l-33 -40 -41 35 c-38 32 -41 38 -37 72
4 31 19 51 82 112 71 67 79 73 101 63 22 -10 24 -15 18 -57z m-752 -111 c-1
-91 -4 -187 -8 -212 -6 -42 -11 -49 -42 -62 -19 -8 -43 -29 -55 -49 l-21 -36
-73 66 c-83 75 -86 80 -91 149 l-3 50 132 133 c74 74 139 131 147 129 13 -2
15 -28 14 -168z m-1000 58 c10 -95 4 -122 -34 -142 -16 -8 -32 -15 -35 -15
-13 0 -46 93 -41 115 3 12 22 39 41 58 19 19 35 43 35 52 0 9 6 15 13 13 7 -3
15 -35 21 -81z m211 -78 c29 -48 66 -59 105 -31 l30 23 25 -28 c18 -21 24 -40
25 -76 l0 -48 -62 -29 c-45 -21 -78 -30 -115 -30 -77 0 -83 5 -83 61 0 39 -5
55 -30 82 -28 33 -30 40 -30 119 0 47 3 88 7 92 9 9 99 -87 128 -135z m1239
80 c31 -37 33 -60 5 -84 -25 -23 -87 -21 -105 3 -22 29 -17 68 12 91 37 29 58
26 88 -10z m-847 -151 c28 -26 32 -92 6 -120 -20 -22 -80 -24 -110 -3 -41 29
-38 98 6 132 25 19 72 15 98 -9z m-552 -34 c17 -17 16 -35 -1 -41 -15 -5 -65
37 -59 48 9 14 42 11 60 -7z m1482 -16 c18 -18 33 -36 33 -42 0 -5 -17 -32
-38 -60 -21 -28 -44 -61 -51 -73 -21 -41 -29 -24 -33 75 -4 86 -2 99 15 115
27 24 36 22 74 -15z m-169 -140 l4 -145 -33 -23 c-34 -25 -95 -31 -151 -17
-27 7 -28 10 -28 72 0 36 4 65 9 65 12 0 161 185 161 199 0 8 5 9 17 3 14 -8
17 -32 21 -154z m-323 -68 c4 -6 -6 -7 -27 -3 -44 8 -48 13 -10 13 17 0 34 -4
37 -10z"/>
<path d="M768 1417 c-58 -54 -38 -143 35 -161 31 -8 42 -6 65 11 59 44 66 100
17 149 -32 32 -83 32 -117 1z"/>
</g>
</svg>
